<svg xmlns="http://www.w3.org/2000/svg" xmlns:xlink="http://www.w3.org/1999/xlink" contentStyleType="text/css" data-diagram-type="DESCRIPTION" height="535px" preserveAspectRatio="none" style="width:384px;height:535px;background:#FFFFFF;" version="1.1" viewBox="0 0 384 535" width="384px" zoomAndPan="magnify"><defs/><g><!--cluster Plataforma de Marketplace--><g class="cluster" data-entity="Plataforma de Marketplace" data-source-line="22" data-uid="ent0005" id="cluster_Plataforma de Marketplace"><rect fill="#F9FAFB" height="522" rx="2.5" ry="2.5" style="stroke:#888888;stroke-width:1;" width="229.12" x="149.08" y="7"/><text fill="#000000" font-family="sans-serif" font-size="14" font-weight="bold" lengthAdjust="spacing" textLength="214.4023" x="156.4388" y="21.9951">Plataforma de Marketplace</text></g><!--entity UC_Publicar--><g class="entity" data-entity="UC_Publicar" data-source-line="24" data-uid="ent0006" id="entity_UC_Publicar"><ellipse cx="263.1357" cy="60.0031" fill="#EEF4FF" rx="79.9157" ry="18.3831" style="stroke:#4460F1;stroke-width:0.5;"/><text fill="#000000" font-family="sans-serif" font-size="14" lengthAdjust="spacing" textLength="130.4775" x="197.8969" y="64.6516">Publicar productos</text></g><!--entity UC_Perfil--><g class="entity" data-entity="UC_Perfil" data-source-line="25" data-uid="ent0007" id="entity_UC_Perfil"><ellipse cx="263.1443" cy="130.0049" fill="#EEF4FF" rx="70.7743" ry="16.5549" style="stroke:#4460F1;stroke-width:0.5;"/><text fill="#000000" font-family="sans-serif" font-size="14" lengthAdjust="spacing" textLength="108.3223" x="208.9832" y="134.6533">Gestionar perfil</text></g><!--entity UC_Transacciones--><g class="entity" data-entity="UC_Transacciones" data-source-line="26" data-uid="ent0008" id="entity_UC_Transacciones"><ellipse cx="263.1445" cy="272.9989" fill="#EEF4FF" rx="96.6945" ry="21.7389" style="stroke:#4460F1;stroke-width:0.5;"/><text fill="#000000" font-family="sans-serif" font-size="14" lengthAdjust="spacing" textLength="168.7451" x="178.7719" y="277.6473">Consultar transacciones</text></g><!--entity UC_Buscar--><g class="entity" data-entity="UC_Buscar" data-source-line="28" data-uid="ent0009" id="entity_UC_Buscar"><ellipse cx="263.1361" cy="199.0032" fill="#EEF4FF" rx="76.4661" ry="17.6932" style="stroke:#4460F1;stroke-width:0.5;"/><text fill="#000000" font-family="sans-serif" font-size="14" lengthAdjust="spacing" textLength="122.2676" x="202.0023" y="203.6517">Buscar productos</text></g><!--entity UC_Compra--><g class="entity" data-entity="UC_Compra" data-source-line="29" data-uid="ent0010" id="entity_UC_Compra"><ellipse cx="263.1355" cy="346.9991" fill="#EEF4FF" rx="73.0455" ry="17.0091" style="stroke:#4460F1;stroke-width:0.5;"/><text fill="#000000" font-family="sans-serif" font-size="14" lengthAdjust="spacing" textLength="113.9551" x="206.1579" y="351.6475">Realizar compra</text></g><!--entity UC_Moderar--><g class="entity" data-entity="UC_Moderar" data-source-line="31" data-uid="ent0011" id="entity_UC_Moderar"><ellipse cx="263.1356" cy="494.9951" fill="#EEF4FF" rx="76.2756" ry="17.6551" style="stroke:#4460F1;stroke-width:0.5;"/><text fill="#000000" font-family="sans-serif" font-size="14" lengthAdjust="spacing" textLength="121.8096" x="202.2308" y="499.6436">Moderar usuarios</text></g><!--entity UC_GestionarTrans--><g class="entity" data-entity="UC_GestionarTrans" data-source-line="32" data-uid="ent0012" id="entity_UC_GestionarTrans"><ellipse cx="263.1409" cy="421.0022" fill="#EEF4FF" rx="97.0609" ry="21.8122" style="stroke:#4460F1;stroke-width:0.5;"/><text fill="#000000" font-family="sans-serif" font-size="14" lengthAdjust="spacing" textLength="169.5586" x="178.3616" y="425.6506">Gestionar transacciones</text></g><!--entity PROD--><g class="entity" data-entity="PROD" data-source-line="17" data-uid="ent0002" id="entity_PROD"><ellipse cx="55.5356" cy="107.85" fill="#F1F1F1" rx="16" ry="16" style="stroke:#181818;stroke-width:0.5;"/><path d="M55.5356,127.85 C59.5356,127.85 62.5356,127.85 66.5356,123.85 C74.5356,123.85 82.5356,131.85 82.5356,139.85 L82.5356,143.85 C82.5356,147.85 78.5356,151.85 74.5356,151.85 L36.5356,151.85 C32.5356,151.85 28.5356,147.85 28.5356,143.85 L28.5356,139.85 C28.5356,131.85 36.5356,123.85 44.5356,123.85 C48.5356,127.85 51.5356,127.85 55.5356,127.85" fill="#F1F1F1" style="stroke:#181818;stroke-width:0.5;"/><text fill="#000000" font-family="sans-serif" font-size="14" lengthAdjust="spacing" textLength="68.0313" x="21.52" y="165.3451">Productor</text></g><!--entity COMP--><g class="entity" data-entity="COMP" data-source-line="18" data-uid="ent0003" id="entity_COMP"><ellipse cx="55.5441" cy="250.85" fill="#F1F1F1" rx="16" ry="16" style="stroke:#181818;stroke-width:0.5;"/><path d="M55.5441,270.85 C59.5441,270.85 62.5441,270.85 66.5441,266.85 C74.5441,266.85 82.5441,274.85 82.5441,282.85 L82.5441,286.85 C82.5441,290.85 78.5441,294.85 74.5441,294.85 L36.5441,294.85 C32.5441,294.85 28.5441,290.85 28.5441,286.85 L28.5441,282.85 C28.5441,274.85 36.5441,266.85 44.5441,266.85 C48.5441,270.85 51.5441,270.85 55.5441,270.85" fill="#F1F1F1" style="stroke:#181818;stroke-width:0.5;"/><text fill="#000000" font-family="sans-serif" font-size="14" lengthAdjust="spacing" textLength="78.4082" x="16.34" y="308.3451">Comprador</text></g><!--entity ADMIN--><g class="entity" data-entity="ADMIN" data-source-line="19" data-uid="ent0004" id="entity_ADMIN"><ellipse cx="55.54" cy="398.85" fill="#F1F1F1" rx="16" ry="16" style="stroke:#181818;stroke-width:0.5;"/><path d="M55.54,418.85 C59.54,418.85 62.54,418.85 66.54,414.85 C74.54,414.85 82.54,422.85 82.54,430.85 L82.54,434.85 C82.54,438.85 78.54,442.85 74.54,442.85 L36.54,442.85 C32.54,442.85 28.54,438.85 28.54,434.85 L28.54,430.85 C28.54,422.85 36.54,414.85 44.54,414.85 C48.54,418.85 51.54,418.85 55.54,418.85" fill="#F1F1F1" style="stroke:#181818;stroke-width:0.5;"/><text fill="#000000" font-family="sans-serif" font-size="14" lengthAdjust="spacing" textLength="99.0801" x="6" y="456.3451">Administrador</text></g><!--link PROD to UC_Publicar--><g class="link" data-entity-1="PROD" data-entity-2="UC_Publicar" data-source-line="36" data-uid="lnk13" id="link_PROD_UC_Publicar"><path d="M90,115.71 C105.43,109.33 124.05,101.94 141.08,96 C163.65,88.13 183.1755,82.0945 204.7855,75.8545" fill="none" id="PROD-to-UC_Publicar" style="stroke:#555555;stroke-width:1;"/><polygon fill="#555555" points="210.55,74.19,200.7936,72.8438,205.7463,75.5771,203.0129,80.5298,210.55,74.19" style="stroke:#555555;stroke-width:1;"/></g><!--link PROD to UC_Perfil--><g class="link" data-entity-1="PROD" data-entity-2="UC_Perfil" data-source-line="37" data-uid="lnk14" id="link_PROD_UC_Perfil"><path d="M90.03,130 C117.57,130 151.52,130 186.01,130" fill="none" id="PROD-to-UC_Perfil" style="stroke:#555555;stroke-width:1;"/><polygon fill="#555555" points="192.01,130,183.01,126,187.01,130,183.01,134,192.01,130" style="stroke:#555555;stroke-width:1;"/></g><!--link PROD to UC_Transacciones--><g class="link" data-entity-1="PROD" data-entity-2="UC_Transacciones" data-source-line="38" data-uid="lnk15" id="link_PROD_UC_Transacciones"><path d="M80.2,169.13 C95.2,190.98 116.4,217.12 141.08,234 C156.3,244.41 168.7663,250.3177 186.3463,256.0577" fill="none" id="PROD-to-UC_Transacciones" style="stroke:#555555;stroke-width:1;"/><polygon fill="#555555" points="192.05,257.92,184.736,251.3241,187.2969,256.3681,182.253,258.929,192.05,257.92" style="stroke:#555555;stroke-width:1;"/></g><!--link COMP to UC_Buscar--><g class="link" data-entity-1="COMP" data-entity-2="UC_Buscar" data-source-line="41" data-uid="lnk16" id="link_COMP_UC_Buscar"><path d="M95.16,253.69 C109.4,246.98 125.78,239.7 141.08,234 C163.43,225.67 182.9052,219.6825 204.5552,213.7225" fill="none" id="COMP-to-UC_Buscar" style="stroke:#555555;stroke-width:1;"/><polygon fill="#555555" points="210.34,212.13,200.6011,210.6622,205.5193,213.4571,202.7245,218.3753,210.34,212.13" style="stroke:#555555;stroke-width:1;"/></g><!--link COMP to UC_Compra--><g class="link" data-entity-1="COMP" data-entity-2="UC_Compra" data-source-line="42" data-uid="lnk17" id="link_COMP_UC_Compra"><path d="M95.16,292.31 C109.4,299.02 125.78,306.3 141.08,312 C164.14,320.6 184.5223,326.8182 206.6223,332.8582" fill="none" id="COMP-to-UC_Compra" style="stroke:#555555;stroke-width:1;"/><polygon fill="#555555" points="212.41,334.44,204.7829,328.2088,207.5869,333.1218,202.6739,335.9258,212.41,334.44" style="stroke:#555555;stroke-width:1;"/></g><!--link COMP to UC_Transacciones--><g class="link" data-entity-1="COMP" data-entity-2="UC_Transacciones" data-source-line="43" data-uid="lnk18" id="link_COMP_UC_Transacciones"><path d="M95.21,273 C115.34,273 134.92,273 159.97,273" fill="none" id="COMP-to-UC_Transacciones" style="stroke:#555555;stroke-width:1;"/><polygon fill="#555555" points="165.97,273,156.97,269,160.97,273,156.97,277,165.97,273" style="stroke:#555555;stroke-width:1;"/></g><!--link ADMIN to UC_Moderar--><g class="link" data-entity-1="ADMIN" data-entity-2="UC_Moderar" data-source-line="46" data-uid="lnk19" id="link_ADMIN_UC_Moderar"><path d="M105.18,444.96 C116.8,450.26 129.27,455.6 141.08,460 C163.43,468.33 182.9052,474.3175 204.5552,480.2775" fill="none" id="ADMIN-to-UC_Moderar" style="stroke:#555555;stroke-width:1;"/><polygon fill="#555555" points="210.34,481.87,202.7245,475.6247,205.5193,480.5429,200.6011,483.3378,210.34,481.87" style="stroke:#555555;stroke-width:1;"/></g><!--link ADMIN to UC_GestionarTrans--><g class="link" data-entity-1="ADMIN" data-entity-2="UC_GestionarTrans" data-source-line="47" data-uid="lnk20" id="link_ADMIN_UC_GestionarTrans"><path d="M105.53,421 C123.7,421 138.99,421 159.93,421" fill="none" id="ADMIN-to-UC_GestionarTrans" style="stroke:#555555;stroke-width:1;"/><polygon fill="#555555" points="165.93,421,156.93,417,160.93,421,156.93,425,165.93,421" style="stroke:#555555;stroke-width:1;"/></g><!--link ADMIN to UC_Transacciones--><g class="link" data-entity-1="ADMIN" data-entity-2="UC_Transacciones" data-source-line="48" data-uid="lnk21" id="link_ADMIN_UC_Transacciones"><path d="M78.44,382.09 C93.36,358.77 115.1,330.21 141.08,312 C156.09,301.48 168.3885,295.549 185.8685,289.819" fill="none" id="ADMIN-to-UC_Transacciones" style="stroke:#555555;stroke-width:1;"/><polygon fill="#555555" points="191.57,287.95,181.7718,286.9525,186.8188,289.5075,184.2637,294.5544,191.57,287.95" style="stroke:#555555;stroke-width:1;"/></g><!--SRC=[VLB1RjGm4BtxAqRbK3XK0cb1S47QPX7Yi3JQmhcQEkEjMSTUZHqgYlWgFe4VmtQSR8nMH3aaRvxVl9ddIzXe9YdrdzyM7Xph9sS36ZWY8_JqpJ4Oac5W58PKWE20zVuXG9UE1Usi49VmmGTj77pNVa0Z_47RTBu7bC7nRVXX2F2HlEjfKHmyIVG4FmN0DSh3djrWkyQPsFCPaLefbIgEE-A2hbPlNgfN4LqpkyS2liwF-BMGJjRGxaqHNqgypS-vbkgTGdKVTU90wsISlCW3GCkk6_8NUcXtDvk2Dwu_CdOZtjnisuAlkrvRxSDSMs-sdpudtTk8Ke_YPF2YDHXGEUuHEe8jye72qQ2aYsm-li_RuTveYGp7OiI_IAfVcxkfabWVoQSy4erOQJDpybzYDCxwmOJ8YDQinnYxipIBVLc2fVNruCys7l74s14Q_HGvCczZ8eoxAIfR5mE8b27U3zOdbOBNxizwcylPv1ZIZkAQCkkKa4ZnmDNL-sex5JYkOmdLWzVASyOY1JoTAECleJBm4lgVRdL7HBuWqx5fAnNupmAgMjNdBm00]--></g></svg>